<?xml version="1.0" encoding="UTF-8" standalone="no"?>
<!-- Created with Inkscape (http://www.inkscape.org/) -->

<svg
   xmlns:dc="http://purl.org/dc/elements/1.1/"
   xmlns:cc="http://creativecommons.org/ns#"
   xmlns:rdf="http://www.w3.org/1999/02/22-rdf-syntax-ns#"
   xmlns:svg="http://www.w3.org/2000/svg"
   xmlns="http://www.w3.org/2000/svg"
   version="1.1"
   width="96.832062"
   height="88.563705"
   viewBox="67.5 115.5 9.1093866 10.098847"
   id="svg3039"
   xml:space="preserve"
   style="fill-rule:evenodd"><metadata
   id="metadata3053"><rdf:RDF><cc:Work
       rdf:about=""><dc:format>image/svg+xml</dc:format><dc:type
         rdf:resource="http://purl.org/dc/dcmitype/StillImage" /><dc:title></dc:title></cc:Work></rdf:RDF></metadata>
 <defs
   id="defs3041">
  <style
   type="text/css"
   id="style3043" />
 </defs>
 <g
   transform="translate(-1.3362965,-0.7306)"
   id="Layer_x0020_1">
  <metadata
   id="CorelCorpID_0Corel-Layer" />
  <g
   id="_90173104">
   <path
   d="m 78.9201,123.452 -0.9889,0.0194 c 0.3963,0.4463 0.3611,0.9962 -0.3504,1.101 l -4.4194,0.8509 -4.3647,0.8404 c -0.5978,0.1255 -1.0714,-0.1768 -0.8025,-0.8429 l 1.4824,-4.203 1.464,-4.151 c 0.1914,-0.5738 0.6952,-0.8291 1.1435,-0.2687 l 0.157,0.1791 0.056,0.064 0.1996,-0.6578"
   id="_90737296"
   style="fill:none" />
   <path
   d="m 78.9208,123.49 -0.9096,0.0178 c 0.1127,0.1432 0.1832,0.2946 0.2043,0.4382 0.0132,0.0894 0.0071,0.1763 -0.0196,0.2566 -0.0269,0.0807 -0.0748,0.1545 -0.1449,0.2167 -0.1039,0.0923 -0.2571,0.1603 -0.4645,0.1908 l -4.418,0.8506 -4.3647,0.8404 0,-1e-4 c -0.2216,0.0464 -0.4277,0.0356 -0.5881,-0.0292 -0.0833,-0.0336 -0.1548,-0.0818 -0.2101,-0.144 -0.0556,-0.0624 -0.0951,-0.1392 -0.1139,-0.2293 -0.0281,-0.1342 -0.0105,-0.2985 0.0667,-0.4904 l -1e-4,0 1.4824,-4.203 1.464,-4.151 10e-5,0 c 0.0689,-0.2063 0.1779,-0.3738 0.3103,-0.4796 0.0735,-0.0587 0.1543,-0.0989 0.2395,-0.1168 0.0858,-0.018 0.1761,-0.0135 0.2679,0.0171 0.1298,0.0433 0.2629,0.1394 0.3902,0.2983 l 0.157,0.1791 0.011,0.0125 0.1797,-0.5923 0.0726,0.022 -0.1996,0.6578 -0.0198,0.0655 -0.0451,-0.0515 -0.056,-0.064 -0.157,-0.1791 -10e-4,-10e-4 c -0.1179,-0.1475 -0.2392,-0.236 -0.3562,-0.275 -0.0783,-0.0261 -0.1553,-0.03 -0.2283,-0.0147 -0.0733,0.0154 -0.1435,0.0504 -0.2075,0.1016 -0.1211,0.0968 -0.2215,0.2522 -0.2859,0.4452 l -1e-4,6e-4 -1.464,4.151 -1.4824,4.203 -6e-4,10e-4 c -0.0718,0.1779 -0.0887,0.3278 -0.0634,0.4482 0.0159,0.0763 0.0493,0.1414 0.0963,0.1941 0.0473,0.0532 0.1092,0.0949 0.1815,0.124 0.147,0.0594 0.338,0.0687 0.5451,0.0253 l 6e-4,-2e-4 4.3647,-0.8404 4.4194,-0.8509 0.0016,-3e-4 c 0.192,-0.0282 0.3321,-0.0896 0.4251,-0.1722 l 1e-4,0 c 0.06,-0.0533 0.1008,-0.1157 0.1234,-0.1837 0.0228,-0.0684 0.0277,-0.1436 0.0162,-0.2218 -0.022,-0.1499 -0.1046,-0.311 -0.2373,-0.4604 l -0.0546,-0.0615 0.0823,-0.002 0.9889,-0.0194 0.0014,0.076 z"
   id="_90490296"
   style="fill:#ffffff;fill-rule:nonzero" />
   <path
   d="m 70.2865,121.817 -0.1063,0.2867 0.5413,0.5089 0.0134,0.0126 c 0.0067,-0.0615 0.0292,-0.1292 0.0454,-0.1975 0.0221,-0.0935 -0.008,-0.0877 -0.0582,-0.1516 -0.0502,-0.0639 -0.0805,-0.0826 -0.0805,-0.0826 0,0 -0.1863,-0.0644 -0.2695,-0.0796 -0.0832,-0.0152 -0.1089,-0.0214 -0.1089,-0.0214 l 0.032,-0.0237 -0.0596,0.002 c 0,0 0.0613,-0.0892 0.1739,-0.1153 0.1127,-0.0262 0.163,-0.009 0.2514,-0.0215 0.0457,-0.006 0.1257,-0.0319 0.213,-0.0455 l -0.0077,-0.0205 -0.302,-0.8074 -0.097,0.2892 0.2451,0.5451 0.1539,-0.0269 0.0077,0.0205 c 0.0576,-0.009 0.1187,-0.0126 0.1743,-0.003 l -0.0059,-0.0324 0.0519,0.0253 0.0055,-0.009 c 0,0 -0.0209,-0.1312 -0.0112,-0.1942 0.0097,-0.0629 0.1753,-0.0631 0.1753,-0.0631 l -0.2504,-1.9359 0.4014,-1.0474 0.0419,3.7728 -0.03,-0.0677 c -0.0816,-0.1805 -0.1653,-0.3605 -0.3121,-0.4281 -0.0208,-0.01 -0.0432,-0.0158 -0.0663,-0.02 l 0.0137,0.0749 0.1174,0.0721 0.0376,0.2391 -0.0199,0.1617 0.1061,0.1085 0.1717,-0.1004 -0.0129,-0.0283 0.0381,0.0136 -0.025,0.0146 c 0.0419,0.0927 0.0571,0.123 0.0781,0.1444 0.0081,0.008 0.0316,0.0165 0.0629,0.0258 2e-4,-0.008 7e-4,-0.0127 0.0012,-0.0143 l 0.0999,0.0228 0.7609,-3.9166 0.1265,0.1703 -0.2735,1.5597 0.1603,-0.5285 -0.0591,-0.0481 0.2865,-1.6227 -0.1334,0.0301 -0.0747,0.0187 -0.0049,-0.0817 0.0291,-0.1427 0.1427,-0.084 0.0806,0.0364 0.1263,-0.7152 0.1043,0.1258 -0.3716,1.7948 -0.0176,0.1295 0.5067,-1.7751 0.0776,0.0856 -0.4233,1.3747 0.2058,0.2487 -0.4084,1.1653 0.0856,0.014 0.1408,-0.1754 0.08,-0.0154 0.0122,0.29 -0.1088,0.1606 -0.2089,0.0708 -0.0186,-0.0968 -0.0724,0.01 -0.3075,0.9189 0.053,0.003 0.0695,-0.092 0.058,0.008 0.0513,0.0402 -0.0187,0.095 -0.1403,0.1641 -0.0662,-0.005 -0.0155,-0.1145 -0.0559,0.026 -0.2328,0.7802 0.0592,0.0474 0.1373,-0.0439 0.0489,0.0276 -0.0331,0.1108 -0.064,0.0406 -0.01,0.0717 0.0364,0.007 -0.0551,0.0435 c 0.0161,0.0136 0.034,0.0267 0.0543,0.0389 0.0229,0.0138 0.049,0.0264 0.0792,0.037 0.0101,0.004 0.0207,0.007 0.0317,0.0101 0.074,0.0203 0.2087,0.0439 0.3537,0.0678 l 0.0058,-0.0168 0.0853,-0.0316 0.0286,0.0358 -0.0608,0.0117 -0.0029,0.0102 c 0.166,0.027 0.3364,0.0534 0.4375,0.0741 0.0993,0.0203 0.1666,0.0381 0.2215,0.051 0.0569,0.0135 0.1004,0.0217 0.1515,0.0221 0.0815,6e-4 0.2388,0.0316 0.363,0.0542 0.0289,0.005 0.0565,0.0104 0.0804,0.0142 0.1266,0.0203 0.1894,0.0572 0.1966,0.0714 0.0072,0.0142 0.0139,0.0148 0.0159,0.0368 0.002,0.0221 9e-4,0.0279 9e-4,0.0279 0,0 -0.0264,0.003 -0.0341,0.003 -0.0078,4e-4 0.0024,0.0186 0.0024,0.0186 0,0 -0.3425,0.002 -0.5117,0.004 -0.1691,10e-4 -0.2729,-0.0165 -0.3547,-0.0165 -0.0818,1e-4 -0.2244,-0.0129 -0.2244,-0.0129 0,0 0.1017,0.0344 0.2158,0.0546 l -0.0408,-0.008 0.017,-0.005 0.0689,0.0201 c -0.0146,-0.002 -0.0292,-0.004 -0.0436,-0.007 0.0225,0.004 0.0459,0.008 0.0687,0.0101 0.1384,0.0149 0.3603,0.0496 0.4853,0.0704 0.125,0.0208 0.3145,0.0561 0.3554,0.0651 0.041,0.009 0.0611,0.0263 0.0611,0.0263 l -0.041,0.008 0.0135,-0.003 2.5676,-0.0903 0.225,0.2621 -2.9616,-0.032 -0.0566,0.0314 -0.2621,-0.007 0.0325,-0.0277 -0.4548,-0.005 -0.0804,-0.0635 0.2181,0.1723 0.2334,0.1836 0.0094,0.001 0.0108,-0.0715 0.0709,0.0808 1.1919,0.1359 -0.9973,0.192 -1.4399,-0.376 0.002,-0.006 c 0,0 -0.0371,-0.0411 -0.0575,-0.0596 -0.0203,-0.0185 -0.0312,-0.0725 -0.0312,-0.0725 0,0 0.0147,-0.003 0.0248,-0.002 -0.0083,-7e-4 -0.0201,10e-4 -0.0238,0.002 l -0.0016,1e-4 -0.0214,0.1102 0.092,0.0771 -0.0767,0.2239 c 0,0 -0.0238,0.1673 -0.0281,0.1916 -0.0043,0.0244 -0.0028,0.0612 -0.0028,0.0612 l 0.0206,0.0487 0.1196,-0.0129 0.0494,0.0354 0.0104,0.0249 -0.0192,-8e-4 -0.0314,-0.0175 -0.0062,0.0259 -0.0107,0.0144 0.0094,0.0195 -0.0827,-0.0222 -0.2016,0.0354 -0.0547,0.0476 0.001,0.0345 -0.0357,-0.0458 -0.0072,-0.0256 -0.1156,0.0223 0.0738,-0.0939 0.0437,0.0174 0.0491,-0.0767 0.0386,0.003 0.054,0.0244 0.092,-0.3195 -0.032,-0.1431 7e-4,0.003 -0.0021,0.006 -0.2397,-0.0892 0.018,-0.1279 -0.0903,-0.0407 -0.0173,0.003 0.0285,0.0316 -0.0768,-0.0323 -0.0011,0.0293 0.0665,0.0602 -0.0921,-0.0418 0.011,0.0394 -0.0462,-0.0247 0.0119,0.0268 -0.0497,-0.0252 10e-5,0.175 0.021,0.1733 -0.273,0.4273 -0.0065,0.036 0.0328,0.0307 0.1221,-0.0235 0.0556,0.0443 0.005,0.0259 -0.0755,-0.0314 -0.1762,0.0339 0.0021,0.04 -0.1451,-0.0439 -0.0707,0.017 -0.0608,0.0566 -0.0088,-0.0982 0.0318,-0.0555 0.0396,-0.004 0.0587,0.0313 0.1201,-0.0456 0.2184,-0.3818 -0.0202,-0.0585 -0.0548,-0.2035 c 0,0 -0.1646,-0.218 -0.3082,-0.3731 -0.1435,-0.1552 -0.3128,-0.2586 -0.422,-0.4092 -0.1093,-0.1506 -0.1064,-0.2627 -0.0864,-0.3445 0.0199,-0.0819 0.0152,-0.1523 0.005,-0.2284 -0.0027,-0.0205 -0.0026,-0.0427 -1e-4,-0.0653 l -0.0134,-0.0127 0.0494,-0.208 -0.1809,-0.2196 -0.2001,-0.0578 -0.1694,-0.0318 -0.0036,-0.0271 0.0693,-0.0672 0.0688,-0.0391 0.0399,-0.0133 -0.1084,-0.1316 z m 1.3296,0.7958 c -0.0012,0.059 0.0056,0.2664 0.0056,0.2664 l 0.1195,0.0952 0.1504,-0.0708 0.0908,-0.0717 c -0.0517,-0.0438 -0.0852,-0.092 -0.1231,-0.126 -0.0477,-0.0429 -0.1676,-0.0705 -0.2432,-0.0931 z m 0.4206,0.258 -0.0699,0.1789 0.1491,-0.1419 0.0278,-0.0264 -0.0339,-0.017 0.7886,-0.9 0.1136,-0.0219 0.0609,-0.0466 -1e-4,-0.1135 0.3225,-0.3888 -1e-4,4e-4 0.6128,-0.7164 0.0112,0.002 0.2754,-0.0726 0.0411,-0.0689 -0.0711,-0.0755 -0.0692,-0.004 1.0943,-1.2791 -0.2497,-0.302 -1.0949,1.5165 -0.0579,-0.0653 1.5395,-2.4641 -0.1666,-0.1341 -0.9255,1.4929 -0.0706,-0.0319 -0.1427,0.084 -0.0291,0.1427 0.0049,0.0817 0.0747,-0.0187 0.0034,-8e-4 -0.6457,1.0415 -9e-4,0.006 -1.4439,2.324 -0.0339,-0.017 -0.0141,0.0359 z m 1.1796,0.2493 -0.1547,0.0913 0.2897,0.0686 0.3795,-0.0836 0.0629,-0.0138 -0.0867,-0.0158 2.4486,-0.2192 -0.0013,-10e-4 2.5517,-0.233 -0.038,-0.1543 -1.0145,0.1077 0.0169,-0.0283 -0.0711,-0.0755 -0.152,-0.01 -0.0509,-0.0271 -0.1155,0.0331 -0.0294,0.0622 -0.0358,0.0852 0.006,0.006 -1.165,0.1237 -0.1046,-0.1181 2.639,-0.472 -0.0267,-0.1086 -3.1926,0.6037 -1.9859,0.3672 -0.1142,-0.0208 -0.0554,0.0327 z m 0.8281,0.4555 c -0.0084,-0.003 -0.0277,-0.01 -0.0462,-0.0107 l -0.0087,-2e-4 c -0.0181,0 -0.0245,0.002 -0.0245,0.002 l 0.045,0.0418 -0.1195,0.0252 0.0094,0.0139 -0.0827,0.0418 c 0,0 -0.0868,-0.0372 -0.0979,-0.0429 -0.0061,-0.003 -0.0186,-0.005 -0.0285,-0.006 l 0.0343,-0.0293 0.2477,-0.0664 0.0167,0.02 0.0104,0.0125 0.0445,-0.002 z m -0.3611,0.0712 -0.0723,0.0617 0.0174,0.007 0.0863,-0.0346 -0.0314,-0.0344 z m -0.1513,0.3592 0,3e-4 -0.2552,-0.0426 0.2209,0.1076 0.0895,0.0534 0.0386,-0.0124 -0.0331,-0.0227 -0.0081,-0.0422 -0.0526,-0.0414 z m -0.2555,-0.0423 -0.015,-0.007 -0.6793,-0.2282 -0.1301,0.007 -0.0514,0.005 -0.0255,0.0315 c 0.0033,0.0109 0.0064,0.0219 0.0071,0.0261 0.001,0.007 -0.0084,0.0155 -0.0175,0.0223 l -0.0532,0.002 0.001,3e-4 c 0.0089,0.003 0.0328,0.0105 0.0433,0.004 l 0.0071,-0.005 -0.0035,0.0365 0.3611,0.0396 0.067,-0.0827 0.0898,0.0132 0.064,0.1055 0.255,0.0291 c -0.0142,-0.008 -0.0222,-0.0136 -0.022,-0.0155 l 0.1021,0.0171 z m 2.9804,-3.6773 -0.0702,-0.0317 -0.0619,0.0364 -0.0126,0.0618 0.0021,0.0354 0.0324,-0.008 0.0579,-0.013 0.044,-0.0358 0.0083,-0.045 z m 0.5737,1.5543 -0.0702,-0.0317 -0.0619,0.0364 -0.011,0.0538 -1.6377,0.5446 -1.6659,0.5007 1.7102,-0.3451 2.6475,-0.5284 0.0375,-0.1649 -2.094,0.5021 -0.0741,-0.0745 1.7619,-0.5415 -0.0161,-0.1155 -0.5284,0.1757 0.0022,-0.0117 z m -1.8388,-0.7837 -0.0702,-0.0317 -0.0619,0.0364 -0.0126,0.0618 0.0021,0.0354 0.0324,-0.008 0.0579,-0.013 0.044,-0.0358 0.0083,-0.045 z m 0.1738,0.5031 -0.1455,-0.0658 -0.1427,0.084 -0.0291,0.1427 9e-4,0.0143 -0.2063,0.1143 0,1e-4 -1.9479,1.0529 2.0241,-0.7635 2.6864,-1.0071 -0.0913,-0.1489 -2.1163,0.844 -0.0979,-0.0957 2.0219,-1.0624 -0.088,-0.1438 -1.04,0.5761 -0.1504,-0.068 -0.1427,0.084 -0.0291,0.1427 0.0011,0.0191 -0.5072,0.281 z m 1.6034,1.6945 0.0411,-0.0689 -0.0711,-0.0755 -0.152,-0.01 -0.0509,-0.0271 -0.1155,0.0331 -0.0294,0.0622 -0.0358,0.0852 0.0541,0.0549 0.0841,0.0186 0.2754,-0.0726 z m -2.6932,-4.9198 0.0411,-0.0689 -0.0345,-0.0367 0.4848,-1.0809 -0.1521,-0.1309 -0.4851,1.1655 -0.0362,-0.002 -0.0509,-0.0271 -0.1155,0.0331 -0.0294,0.0622 -0.0358,0.0852 0.0541,0.0549 0.0841,0.0186 0.0407,-0.0107 -0.7298,1.7534 7e-4,8e-4 -0.821,1.8999 1.0208,-1.6766 10e-5,1e-4 0.9843,-1.601 -0.1952,-0.1678 -0.6426,1.2323 -0.0643,-0.074 0.6355,-1.4168 0.0462,-0.0122 z m 0.0653,-1.1925 -0.0702,-0.0317 -0.0619,0.0364 -0.0126,0.0618 0.0021,0.0354 0.0324,-0.008 0.0579,-0.013 0.044,-0.0358 0.0083,-0.045 z m -0.2816,-0.88 -0.0702,-0.0317 -0.0619,0.0364 -0.0126,0.0618 0.0021,0.0354 0.0324,-0.008 0.0579,-0.013 0.044,-0.0358 0.0083,-0.045 z m -0.3655,2.6673 -0.0702,-0.0317 -0.0619,0.0364 -0.0126,0.0618 0.0021,0.0354 0.0324,-0.008 0.0579,-0.013 0.044,-0.0358 0.0083,-0.045 z m 2.6719,-0.3189 -0.0702,-0.0317 -0.0619,0.0364 -0.0126,0.0618 0.0021,0.0354 0.0324,-0.008 0.0579,-0.013 0.044,-0.0358 0.0083,-0.045 z m -0.1317,3.233 -0.0702,-0.0317 -0.0619,0.0364 -0.0126,0.0618 0.0021,0.0354 0.0324,-0.008 0.0579,-0.013 0.044,-0.0358 0.0083,-0.045 z m -1.7018,-0.976 0.4037,-0.3932 -0.0011,3e-4 -0.0747,0.0187 -0.0049,-0.0817 0.0291,-0.1427 0.1427,-0.084 0.1408,0.0636 0.8212,-0.7996 -0.1191,0.0314 -0.0841,-0.0186 -0.0541,-0.0549 0.0358,-0.0852 0.0294,-0.0622 0.1155,-0.0331 0.0509,0.0271 0.152,0.01 0.0711,0.0755 -0.0411,0.0689 -0.1314,0.0346 0.1129,0.1026 -1.4981,1.4295 0.0913,0.101 1.331,-1.0015 0.0812,0.1145 -1.5094,1.0851 -1.8988,1.4217 1.8082,-1.8275 0,-2e-4 z m 0.537,-3.0848 -0.162,-0.0732 -0.1427,0.084 -0.0291,0.1427 0.0049,0.0817 0.0747,-0.0187 0.1335,-0.0301 0.1015,-0.0826 0.0192,-0.1038 z m -1.153,-0.8821 -0.162,-0.0732 -0.1427,0.084 -0.0291,0.1427 0.0049,0.0817 0.0747,-0.0187 0.1335,-0.0301 0.1015,-0.0826 0.0192,-0.1038 z m -2.0811,3.501 0.0096,0.0612 0.0714,0.0885 0.1151,0.0323 0.1394,-0.2249 0.0846,-0.2164 -0.0339,-0.074 -0.1731,-0.0516 -0.0771,0.1193 c 0,0 -0.0681,0.0871 -0.0505,0.0881 0.0176,0.001 -0.0332,0.0651 -0.0332,0.0651 l -0.038,0.04 -0.0143,0.0724 z m -0.0239,1.1504 0.1372,-0.033 0.041,-0.1602 -0.0153,-0.0906 -0.1154,-0.0344 -0.0863,0.1733 -0.0165,0.0837 0.0553,0.0612 z m 0.0948,0.3915 -0.0612,-0.001 -0.0385,0.1053 0.061,0.0905 0.0578,-0.0612 0.0282,-0.0685 -0.0473,-0.0649 z m 2.5398,-0.1707 -0.162,-0.0732 -0.1427,0.084 -0.0291,0.1427 0.0049,0.0817 0.0747,-0.0187 0.1335,-0.0301 0.1015,-0.0826 0.0192,-0.1038 z m 0.8774,1.5879 0.0411,-0.0689 -0.0711,-0.0755 -0.152,-0.01 -0.0509,-0.0271 -0.1155,0.0331 -0.0294,0.0622 -0.0358,0.0852 0.0541,0.0549 0.0841,0.0186 0.2754,-0.0726 z m -0.5077,0.5722 0.0256,-0.0485 -0.3207,-0.0561 -0.3013,-0.0512 -0.1312,0.117 0.1147,0.0739 0.1249,0.0371 0.488,-0.0722 z m -1.9809,-1.2262 -0.1191,0.0142 -0.0491,0.0726 0.0598,0.0733 0.1114,0.002 0.0669,-0.0259 0.005,-0.0532 -0.0749,-0.0835 z m -0.9716,-5.0078 0.6765,0.769 0.1506,0.1716 -0.1362,0.7029 0.1937,-0.1437 0.0309,0.0376 -0.0794,0.4164 0.0043,0.1098 0.1033,-0.3586 0.2104,0.3022 0.1799,-0.4977 1.3545,1.5466 2.6886,3.0562 -1.0191,0.1962 c -1.6864,0.3228 -0.2829,0.0607 -3.031,0.5836 l -4.0501,0.7798 0.3426,-0.9652 c 0.3264,-0.9163 0.6597,-1.8655 1.0189,-2.8708 l 1.3616,-3.8359 z"
   id="_91657176"
   style="fill:#ffffff" />
  </g>
 </g>
</svg>