<?xml version="1.0" encoding="UTF-8"?>
<!DOCTYPE svg PUBLIC "-//W3C//DTD SVG 1.1//EN" "http://www.w3.org/Graphics/SVG/1.1/DTD/svg11.dtd">
<!-- Creator: CorelDRAW -->
<svg xmlns="http://www.w3.org/2000/svg" xml:space="preserve" width="4.2332mm" height="4.2332mm" style="shape-rendering:geometricPrecision; text-rendering:geometricPrecision; image-rendering:optimizeQuality; fill-rule:evenodd; clip-rule:evenodd"
viewBox="0 0 4.2332 4.2332"
 xmlns:xlink="http://www.w3.org/1999/xlink">
 <defs>
  <style type="text/css">
   <![CDATA[
    .fil0 {fill:#1F1A17}
   ]]>
  </style>
 </defs>
 <g id="Layer_x0020_1">
  <metadata id="CorelCorpID_0Corel-Layer"/>
  <path class="fil0" d="M0 0l4.2332 0 0 4.2332 -4.2332 0 0 -4.2332zm0.3357 0.2975l-0.1353 0.3647 0.6886 0.6474 0.0171 0.016c0.0085,-0.0782 0.0371,-0.1644 0.0577,-0.2512 0.0282,-0.119 -0.0101,-0.1116 -0.074,-0.1929 -0.0638,-0.0813 -0.1024,-0.1051 -0.1024,-0.1051 0,0 -0.237,-0.0819 -0.3428,-0.1012 -0.1059,-0.0194 -0.1386,-0.0273 -0.1386,-0.0273l0.0407 -0.0301 -0.0758 0.003c0,0 0.078,-0.1135 0.2212,-0.1466 0.1434,-0.0334 0.2074,-0.0115 0.3198,-0.0274 0.0582,-0.0081 0.16,-0.0406 0.271,-0.0579l-0.0097 -0.0261 -0.0619 -0.1652 0.3419 0c0.0029,0.0789 0.017,0.1671 0.017,0.1671l-0.007 0.0119 -0.066 -0.0322 0.0075 0.0412c-0.0708,-0.0127 -0.1485,-0.0081 -0.2218,0.0033l-0.0097 -0.0261 -0.1959 0.0343 -0.0897 -0.1995 -0.525 0 -0.065 0.1822 0 3.6558 1.2463 0 0.0346 -0.0603 0.0503 -0.0054 0.0747 0.0399 0.1528 -0.0581 0.2778 -0.4857 -0.0257 -0.0744 -0.0697 -0.2589c0,0 -0.2094,-0.2773 -0.3921,-0.4746 -0.1825,-0.1975 -0.3979,-0.329 -0.5368,-0.5206 -0.1391,-0.1916 -0.1354,-0.3342 -0.1099,-0.4382 0.0253,-0.1042 0.0193,-0.1938 0.0063,-0.2906 -0.0034,-0.0261 -0.0033,-0.0543 -0.0001,-0.0831l-0.0171 -0.0161 0.0629 -0.2646 -0.2302 -0.2794 -0.2545 -0.0735 -0.2155 -0.0405 -0.0046 -0.0345 0.0882 -0.0855 0.0875 -0.0497 0.0508 -0.0169 -0.1379 -0.1674zm2.3544 3.7381l1.0851 -0.2089 0.2604 -0.0496 0 -0.4771 -1.0503 -0.2742 0.0026 -0.0077c0,0 -0.0472,-0.0523 -0.0732,-0.0758 -0.0258,-0.0236 -0.0397,-0.0922 -0.0397,-0.0922 0,0 0.0187,-0.004 0.0316,-0.0031 -0.0106,-0.0009 -0.0256,0.0014 -0.0303,0.0024l-0.0021 0.0001 -0.0271 0.1402 0.117 0.0981 -0.0976 0.2849c0,0 -0.0303,0.2128 -0.0358,0.2438 -0.0054,0.0309 -0.0035,0.0778 -0.0035,0.0778l0.0262 0.0619 0.1522 -0.0164 0.0628 0.0451 0.0132 0.0316 -0.0244 -0.001 -0.0399 -0.0223 -0.008 0.033 -0.0135 0.0183 0.0119 0.0248 -0.1052 -0.0282 -0.2565 0.045 -0.0696 0.0605 0.0013 0.0439 -0.0454 -0.0582 -0.0092 -0.0326 -0.147 0.0284 0.0939 -0.1195 0.0555 0.0222 0.0625 -0.0976 0.0491 0.0033 0.0687 0.0311 0.117 -0.4065 -0.0406 -0.1821 0.0008 0.0041 -0.0026 0.0082 -0.3049 -0.1135 0.0228 -0.1627 -0.1149 -0.0518 -0.022 0.0042 0.0363 0.0402 -0.0977 -0.0411 -0.0014 0.0373 0.0846 0.0766 -0.1171 -0.0532 0.0139 0.0501 -0.0587 -0.0314 0.0151 0.0341 -0.0632 -0.0321 0.0001 0.2227 0.0267 0.2204 -0.3473 0.5436 -0.0083 0.0458 0.0418 0.039 0.1553 -0.0298 0.0577 0.0459 0.5909 0zm-0.8751 -3.838l0.5588 0 -0.218 1.1224 -0.1271 -0.029c-0.0007,0.0021 -0.0013,0.0085 -0.0016,0.0182 -0.0398,-0.0118 -0.0697,-0.0224 -0.08,-0.0328 -0.0267,-0.0272 -0.046,-0.0658 -0.0994,-0.1838l0.0318 -0.0185 -0.0484 -0.0173 0.0164 0.036 -0.2184 0.1277 -0.135 -0.138 0.0253 -0.2057 -0.0478 -0.3042 -0.1494 -0.0917 -0.0174 -0.0953c0.0294,0.0054 0.0579,0.0133 0.0843,0.0254 0.1868,0.0861 0.2933,0.315 0.3971,0.5447l0.0382 0.0861 -0.0094 -0.8442zm0.8454 0l0.0509 0 0.0167 0.1234 0.0842 0.006 0.1106 -0.1294 0.1346 0 -0.1717 0.3973 0.2419 -0.3973 0.3757 0 -0.88 1.4164 -0.0432 -0.0216 -0.0179 0.0456 -0.0889 0.2277 0.1897 -0.1806 0.0353 -0.0336 -0.0431 -0.0216 1.0032 -1.1449 0.1445 -0.0279 0.0775 -0.0593 -0.0001 -0.1444 0.0463 -0.0558 0.109 0 0 0.355 -0.8532 0.8623 0.8532 -0.6388 0 0.5587 -0.6359 0.3437 0.6359 -0.2399 0 0.5101c-0.0648,-0.0157 -0.1441,-0.0358 -0.2545,-0.0584 -0.1286,-0.0263 -0.3454,-0.0599 -0.5566,-0.0942l0.0037 -0.013 0.0774 -0.0149 -0.0364 -0.0456 -0.1086 0.0403 -0.0073 0.0213c-0.1845,-0.0304 -0.3559,-0.0604 -0.45,-0.0862 -0.014,-0.0039 -0.0275,-0.0084 -0.0403,-0.0129 -0.0385,-0.0134 -0.0717,-0.0295 -0.1008,-0.0471 -0.0258,-0.0155 -0.0486,-0.0321 -0.0691,-0.0494l0.0701 -0.0554 -0.0463 -0.0089 0.0127 -0.0912 0.0815 -0.0516 0.0421 -0.141 -0.0623 -0.0351 -0.1746 0.0559 -0.0754 -0.0603 0.2962 -0.9926 0.0233 -0.0108zm1.3752 1.7737l0 0.1402 -0.1695 -0.0401 0.1695 -0.1001zm0 0.2875l0 0.0635 -0.0086 -0.001c-0.029,-0.003 -0.0588,-0.0077 -0.0874,-0.0128 0.0183,0.0034 0.0369,0.0063 0.0554,0.0088l-0.0876 -0.0256 -0.0216 0.0064 0.0519 0.01c-0.1452,-0.0257 -0.2746,-0.0694 -0.2746,-0.0694 0,0 0.1815,0.0165 0.2855,0.0164 0.0268,0 0.0555,0.0014 0.087,0.0037zm0 0.4435l0 0.0421 -0.1563 -0.1235 0.1023 0.0808 0.054 0.0006zm0 0.2882l0 0.0206 -0.026 -0.0044c-0.0003,0.0023 0.0092,0.0087 0.026,0.0186l0 0.0009 -0.3225 -0.0368 -0.0814 -0.1342 -0.1142 -0.0168 -0.0853 0.1052 -0.4593 -0.0504 0.0044 -0.0465 -0.009 0.0068c-0.0134,0.0083 -0.0437,-0.0015 -0.0551,-0.0051l-0.0013 -0.0004 0.0677 -0.0026c0.0116,-0.0087 0.0235,-0.0196 0.0222,-0.0284 -0.0008,-0.0054 -0.0048,-0.0194 -0.009,-0.0332l0.0325 -0.0401 0.0654 -0.0058 0.1655 -0.0092 0.7794 0.2618zm-2.0085 -1.6807c-0.0015,0.0751 0.0072,0.3389 0.0072,0.3389l0.152 0.1212 0.1913 -0.0901 0.1155 -0.0912c-0.0657,-0.0558 -0.1084,-0.1171 -0.1566,-0.1603 -0.0607,-0.0546 -0.2132,-0.0897 -0.3094,-0.1185zm0.1147 -0.8512l-0.0779 -0.0015 -0.049 0.134 0.0776 0.1151 0.0735 -0.0779 0.0359 -0.0871 -0.0601 -0.0826zm1.1813 0.9709l-0.1515 0.0181 -0.0625 0.0924 0.0761 0.0932 0.1417 0.0032 0.0851 -0.0329 0.0064 -0.0677 -0.0953 -0.1063z"/>
 </g>
</svg>
